<svg width="20" height="21" viewBox="0 0 20 21" fill="none" xmlns="http://www.w3.org/2000/svg">
<path d="M5.87095 20.0593C5.39517 20.0593 4.98957 19.8899 4.65415 19.5511C4.31874 19.2123 4.15103 18.805 4.15103 18.3293C4.15103 17.8535 4.32043 17.4479 4.65923 17.1125C4.99805 16.777 5.40534 16.6093 5.88111 16.6093C6.35689 16.6093 6.76249 16.7787 7.0979 17.1175C7.43332 17.4564 7.60103 17.8636 7.60103 18.3394C7.60103 18.8152 7.43163 19.2208 7.09282 19.5562C6.75401 19.8916 6.34671 20.0593 5.87095 20.0593ZM15.4543 20.0593C14.9785 20.0593 14.5729 19.8899 14.2375 19.5511C13.9021 19.2123 13.7344 18.805 13.7344 18.3293C13.7344 17.8535 13.9038 17.4479 14.2426 17.1125C14.5814 16.777 14.9887 16.6093 15.4644 16.6093C15.9402 16.6093 16.3458 16.7787 16.6812 17.1175C17.0167 17.4564 17.1844 17.8636 17.1844 18.3394C17.1844 18.8152 17.015 19.2208 16.6762 19.5562C16.3373 19.8916 15.93 20.0593 15.4543 20.0593ZM4.6302 4.24683L7.26561 9.70933H14.1656L17.1604 4.24683H4.6302ZM3.91145 2.80933H18.0247C18.3915 2.80933 18.6705 2.97704 18.8619 3.31246C19.0533 3.64788 19.0531 3.98329 18.8614 4.31871L15.6271 10.1406C15.4514 10.4441 15.2233 10.6876 14.9428 10.8713C14.6624 11.055 14.3554 11.1468 14.0219 11.1468H6.76249L5.42082 13.6385H17.1844V15.076H5.63645C4.96561 15.076 4.48245 14.8524 4.18697 14.4052C3.89148 13.9579 3.89547 13.4548 4.19895 12.8958L5.73228 10.0687L2.09061 2.35413H0.221863V0.916626H3.02499L3.91145 2.80933Z" fill="#303030"/>
</svg>
